<svg width="32" height="32" viewBox="0 0 8.467 8.467" xmlns="http://www.w3.org/2000/svg"><g style="display:inline"><g style="stroke-width:1.00001"><path d="m.53.53 3.703.888-2.815 2.815Z" style="fill:#fff;fill-opacity:1;fill-rule:evenodd;stroke-width:3.5712"/><path d="M4.233 1.418 1.418 4.233 4.233 7.05l2.815-2.816Z" style="opacity:.88;fill:#fff;fill-opacity:1;fill-rule:evenodd;stroke-width:3.5712"/><path d="m7.937.53-3.704.888 2.815 2.815Z" style="opacity:.66;fill:#fff;fill-opacity:1;fill-rule:evenodd;stroke-width:3.5712"/><path d="m.53 7.937 3.703-.888-2.815-2.816Z" style="fill:#fff;fill-opacity:1;fill-rule:evenodd;stroke-width:3.5712"/><path d="M7.937 7.937 4.233 7.05l2.815-2.816Z" style="opacity:.66;fill:#fff;fill-opacity:1;fill-rule:evenodd;stroke-width:3.5712"/><path d="m.53.53.888 3.703-.889-1.852Z" style="fill:#fff;fill-opacity:1;fill-rule:evenodd;stroke-width:3.5712"/><path d="m7.937.53-.889 3.703.89-1.852Z" style="opacity:.66;fill:#fff;fill-opacity:1;fill-rule:evenodd;stroke-width:3.5712"/><path d="m.53 7.937.888-3.704-.889 1.852Z" style="fill:#fff;fill-opacity:1;fill-rule:evenodd;stroke-width:3.5712"/><path d="m7.937 7.937-.889-3.704.89 1.852Zm-7.407 0 3.703-.888-1.852.888ZM.53.53l3.703.888L2.381.53Z" style="opacity:.66;fill:#fff;fill-opacity:1;fill-rule:evenodd;stroke-width:3.5712"/><path d="M7.937 7.937 4.233 7.05l1.852.888Zm0-7.407-3.704.888L6.085.53Z" style="fill:#fff;fill-opacity:1;fill-rule:evenodd;stroke-width:3.5712"/></g></g></svg>